<svg width="1080" height="1920" viewBox="0 0 1080 1920" xmlns="http://www.w3.org/2000/svg">
  <defs>
    <linearGradient id="bg" x1="0" y1="0" x2="0" y2="1">
      <stop offset="0%" stop-color="#0f69ff"/>
      <stop offset="58%" stop-color="#4a6bff"/>
      <stop offset="100%" stop-color="#d97cff"/>
    </linearGradient>
    <radialGradient id="glow" cx="50%" cy="38%" r="52%">
      <stop offset="0%" stop-color="#ffffff" stop-opacity="0.52"/>
      <stop offset="60%" stop-color="#7efcff" stop-opacity="0.18"/>
      <stop offset="100%" stop-color="#7efcff" stop-opacity="0"/>
    </radialGradient>
    <filter id="shadow" x="-20%" y="-20%" width="140%" height="140%">
      <feGaussianBlur stdDeviation="12"/>
    </filter>
    <filter id="soft" x="-20%" y="-20%" width="140%" height="140%">
      <feGaussianBlur stdDeviation="5"/>
    </filter>
    <linearGradient id="btnBlue" x1="0" y1="0" x2="0" y2="1">
      <stop offset="0%" stop-color="#2a8dff"/>
      <stop offset="100%" stop-color="#1560ff"/>
    </linearGradient>
    <linearGradient id="titleGlow" x1="0" y1="0" x2="0" y2="1">
      <stop offset="0%" stop-color="#ffffff"/>
      <stop offset="100%" stop-color="#c8f8ff"/>
    </linearGradient>
  </defs>

  <rect width="1080" height="1920" fill="url(#bg)"/>
  <rect width="1080" height="1920" fill="url(#glow)"/>

  <!-- floating blocks -->
  <g opacity="0.98">
    <g transform="translate(70 220) rotate(-18)">
      <rect x="0" y="0" width="180" height="110" rx="30" fill="#ff355f"/>
      <circle cx="36" cy="26" r="16" fill="#ff9cb2" opacity="0.35"/>
      <circle cx="76" cy="26" r="16" fill="#ff9cb2" opacity="0.35"/>
      <circle cx="116" cy="26" r="16" fill="#ff9cb2" opacity="0.35"/>
      <circle cx="36" cy="66" r="16" fill="#ff9cb2" opacity="0.35"/>
      <circle cx="76" cy="66" r="16" fill="#ff9cb2" opacity="0.35"/>
      <circle cx="116" cy="66" r="16" fill="#ff9cb2" opacity="0.35"/>
    </g>
    <g transform="translate(360 120) rotate(0)">
      <rect x="0" y="0" width="310" height="118" rx="34" fill="#af54ff"/>
      <circle cx="48" cy="30" r="18" fill="#e1b8ff" opacity="0.3"/>
      <circle cx="98" cy="30" r="18" fill="#e1b8ff" opacity="0.3"/>
      <circle cx="148" cy="30" r="18" fill="#e1b8ff" opacity="0.3"/>
      <circle cx="198" cy="30" r="18" fill="#e1b8ff" opacity="0.3"/>
      <circle cx="248" cy="30" r="18" fill="#e1b8ff" opacity="0.3"/>
      <circle cx="48" cy="76" r="18" fill="#e1b8ff" opacity="0.3"/>
      <circle cx="98" cy="76" r="18" fill="#e1b8ff" opacity="0.3"/>
      <circle cx="148" cy="76" r="18" fill="#e1b8ff" opacity="0.3"/>
      <circle cx="198" cy="76" r="18" fill="#e1b8ff" opacity="0.3"/>
      <circle cx="248" cy="76" r="18" fill="#e1b8ff" opacity="0.3"/>
    </g>
    <g transform="translate(820 260) rotate(14)">
      <rect x="0" y="0" width="190" height="110" rx="30" fill="#42f0ff"/>
      <circle cx="36" cy="26" r="16" fill="#d7ffff" opacity="0.35"/>
      <circle cx="76" cy="26" r="16" fill="#d7ffff" opacity="0.35"/>
      <circle cx="116" cy="26" r="16" fill="#d7ffff" opacity="0.35"/>
      <circle cx="36" cy="66" r="16" fill="#d7ffff" opacity="0.35"/>
      <circle cx="76" cy="66" r="16" fill="#d7ffff" opacity="0.35"/>
      <circle cx="116" cy="66" r="16" fill="#d7ffff" opacity="0.35"/>
    </g>
    <g transform="translate(820 610) rotate(-8)">
      <rect x="0" y="0" width="210" height="108" rx="28" fill="#61ff1e"/>
      <circle cx="35" cy="25" r="15" fill="#eaffd8" opacity="0.35"/>
      <circle cx="80" cy="25" r="15" fill="#eaffd8" opacity="0.35"/>
      <circle cx="125" cy="25" r="15" fill="#eaffd8" opacity="0.35"/>
      <circle cx="35" cy="65" r="15" fill="#eaffd8" opacity="0.35"/>
      <circle cx="80" cy="65" r="15" fill="#eaffd8" opacity="0.35"/>
      <circle cx="125" cy="65" r="15" fill="#eaffd8" opacity="0.35"/>
    </g>
    <g transform="translate(90 1280) rotate(14)">
      <rect x="0" y="0" width="220" height="118" rx="32" fill="#ffd717"/>
      <circle cx="38" cy="30" r="17" fill="#fff2a7" opacity="0.35"/>
      <circle cx="86" cy="30" r="17" fill="#fff2a7" opacity="0.35"/>
      <circle cx="134" cy="30" r="17" fill="#fff2a7" opacity="0.35"/>
      <circle cx="38" cy="78" r="17" fill="#fff2a7" opacity="0.35"/>
      <circle cx="86" cy="78" r="17" fill="#fff2a7" opacity="0.35"/>
      <circle cx="134" cy="78" r="17" fill="#fff2a7" opacity="0.35"/>
    </g>
    <g transform="translate(800 1460) rotate(-12)">
      <rect x="0" y="0" width="220" height="118" rx="32" fill="#ff8d24"/>
      <circle cx="38" cy="30" r="17" fill="#ffd9a9" opacity="0.35"/>
      <circle cx="86" cy="30" r="17" fill="#ffd9a9" opacity="0.35"/>
      <circle cx="134" cy="30" r="17" fill="#ffd9a9" opacity="0.35"/>
      <circle cx="38" cy="78" r="17" fill="#ffd9a9" opacity="0.35"/>
      <circle cx="86" cy="78" r="17" fill="#ffd9a9" opacity="0.35"/>
      <circle cx="134" cy="78" r="17" fill="#ffd9a9" opacity="0.35"/>
    </g>
  </g>

  <!-- minimal hero ring -->
  <ellipse cx="540" cy="870" rx="310" ry="310" fill="none" stroke="#ffffff" stroke-width="6" opacity="0.86"/>
  <ellipse cx="540" cy="870" rx="330" ry="330" fill="none" stroke="#54ffff" stroke-width="14" opacity="0.42" filter="url(#soft)"/>

  <text x="540" y="675" text-anchor="middle" fill="url(#titleGlow)" font-size="92" font-family="Arial, sans-serif" font-weight="900">Score Dash</text>
  <text x="540" y="785" text-anchor="middle" fill="#ffffff" font-size="42" font-family="Arial, sans-serif" font-weight="700">המזל ישחק לך היום?</text>

  <rect x="320" y="1015" width="440" height="92" rx="34" fill="url(#btnBlue)" stroke="rgba(255,255,255,0.25)" stroke-width="4" filter="url(#shadow)"/>
  <text x="540" y="1072" text-anchor="middle" fill="#ffffff" font-size="38" font-family="Arial, sans-serif" font-weight="700">התחל</text>
</svg>
