<svg width="1080" height="1920" viewBox="0 0 1080 1920" xmlns="http://www.w3.org/2000/svg">
  <defs>
    <linearGradient id="bg" x1="0" y1="0" x2="0" y2="1">
      <stop offset="0%" stop-color="#0f69ff"/>
      <stop offset="58%" stop-color="#4a6bff"/>
      <stop offset="100%" stop-color="#d97cff"/>
    </linearGradient>
    <radialGradient id="glow" cx="50%" cy="38%" r="52%">
      <stop offset="0%" stop-color="#ffffff" stop-opacity="0.52"/>
      <stop offset="60%" stop-color="#7efcff" stop-opacity="0.18"/>
      <stop offset="100%" stop-color="#7efcff" stop-opacity="0"/>
    </radialGradient>
    <filter id="shadow" x="-20%" y="-20%" width="140%" height="140%">
      <feGaussianBlur stdDeviation="12"/>
    </filter>
    <filter id="soft" x="-20%" y="-20%" width="140%" height="140%">
      <feGaussianBlur stdDeviation="5"/>
    </filter>
    <linearGradient id="panelBlue" x1="0" y1="0" x2="1" y2="1">
      <stop offset="0%" stop-color="#2a33c8"/>
      <stop offset="100%" stop-color="#1d247f"/>
    </linearGradient>
    <linearGradient id="btnBlue" x1="0" y1="0" x2="0" y2="1">
      <stop offset="0%" stop-color="#2a8dff"/>
      <stop offset="100%" stop-color="#1560ff"/>
    </linearGradient>
    <linearGradient id="btnPink" x1="0" y1="0" x2="0" y2="1">
      <stop offset="0%" stop-color="#ff78a3"/>
      <stop offset="100%" stop-color="#ff3668"/>
    </linearGradient>
    <linearGradient id="card" x1="0" y1="0" x2="1" y2="1">
      <stop offset="0%" stop-color="#ffffff"/>
      <stop offset="100%" stop-color="#e8eefc"/>
    </linearGradient>
  </defs>

  <rect width="1080" height="1920" fill="url(#bg)"/>
  <rect width="1080" height="1920" fill="url(#glow)"/>

  <!-- floating blocks -->
  <g opacity="0.98">
    <g transform="translate(70 220) rotate(-18)">
      <rect x="0" y="0" width="180" height="110" rx="30" fill="#ff355f"/>
      <circle cx="36" cy="26" r="16" fill="#ff9cb2" opacity="0.35"/>
      <circle cx="76" cy="26" r="16" fill="#ff9cb2" opacity="0.35"/>
      <circle cx="116" cy="26" r="16" fill="#ff9cb2" opacity="0.35"/>
      <circle cx="36" cy="66" r="16" fill="#ff9cb2" opacity="0.35"/>
      <circle cx="76" cy="66" r="16" fill="#ff9cb2" opacity="0.35"/>
      <circle cx="116" cy="66" r="16" fill="#ff9cb2" opacity="0.35"/>
    </g>
    <g transform="translate(360 120) rotate(0)">
      <rect x="0" y="0" width="310" height="118" rx="34" fill="#af54ff"/>
      <circle cx="48" cy="30" r="18" fill="#e1b8ff" opacity="0.3"/>
      <circle cx="98" cy="30" r="18" fill="#e1b8ff" opacity="0.3"/>
      <circle cx="148" cy="30" r="18" fill="#e1b8ff" opacity="0.3"/>
      <circle cx="198" cy="30" r="18" fill="#e1b8ff" opacity="0.3"/>
      <circle cx="248" cy="30" r="18" fill="#e1b8ff" opacity="0.3"/>
      <circle cx="48" cy="76" r="18" fill="#e1b8ff" opacity="0.3"/>
      <circle cx="98" cy="76" r="18" fill="#e1b8ff" opacity="0.3"/>
      <circle cx="148" cy="76" r="18" fill="#e1b8ff" opacity="0.3"/>
      <circle cx="198" cy="76" r="18" fill="#e1b8ff" opacity="0.3"/>
      <circle cx="248" cy="76" r="18" fill="#e1b8ff" opacity="0.3"/>
    </g>
    <g transform="translate(820 260) rotate(14)">
      <rect x="0" y="0" width="190" height="110" rx="30" fill="#42f0ff"/>
      <circle cx="36" cy="26" r="16" fill="#d7ffff" opacity="0.35"/>
      <circle cx="76" cy="26" r="16" fill="#d7ffff" opacity="0.35"/>
      <circle cx="116" cy="26" r="16" fill="#d7ffff" opacity="0.35"/>
      <circle cx="36" cy="66" r="16" fill="#d7ffff" opacity="0.35"/>
      <circle cx="76" cy="66" r="16" fill="#d7ffff" opacity="0.35"/>
      <circle cx="116" cy="66" r="16" fill="#d7ffff" opacity="0.35"/>
    </g>
    <g transform="translate(820 610) rotate(-8)">
      <rect x="0" y="0" width="210" height="108" rx="28" fill="#61ff1e"/>
      <circle cx="35" cy="25" r="15" fill="#eaffd8" opacity="0.35"/>
      <circle cx="80" cy="25" r="15" fill="#eaffd8" opacity="0.35"/>
      <circle cx="125" cy="25" r="15" fill="#eaffd8" opacity="0.35"/>
      <circle cx="35" cy="65" r="15" fill="#eaffd8" opacity="0.35"/>
      <circle cx="80" cy="65" r="15" fill="#eaffd8" opacity="0.35"/>
      <circle cx="125" cy="65" r="15" fill="#eaffd8" opacity="0.35"/>
    </g>
    <g transform="translate(90 1280) rotate(14)">
      <rect x="0" y="0" width="220" height="118" rx="32" fill="#ffd717"/>
      <circle cx="38" cy="30" r="17" fill="#fff2a7" opacity="0.35"/>
      <circle cx="86" cy="30" r="17" fill="#fff2a7" opacity="0.35"/>
      <circle cx="134" cy="30" r="17" fill="#fff2a7" opacity="0.35"/>
      <circle cx="38" cy="78" r="17" fill="#fff2a7" opacity="0.35"/>
      <circle cx="86" cy="78" r="17" fill="#fff2a7" opacity="0.35"/>
      <circle cx="134" cy="78" r="17" fill="#fff2a7" opacity="0.35"/>
    </g>
    <g transform="translate(800 1460) rotate(-12)">
      <rect x="0" y="0" width="220" height="118" rx="32" fill="#ff8d24"/>
      <circle cx="38" cy="30" r="17" fill="#ffd9a9" opacity="0.35"/>
      <circle cx="86" cy="30" r="17" fill="#ffd9a9" opacity="0.35"/>
      <circle cx="134" cy="30" r="17" fill="#ffd9a9" opacity="0.35"/>
      <circle cx="38" cy="78" r="17" fill="#ffd9a9" opacity="0.35"/>
      <circle cx="86" cy="78" r="17" fill="#ffd9a9" opacity="0.35"/>
      <circle cx="134" cy="78" r="17" fill="#ffd9a9" opacity="0.35"/>
    </g>
  </g>

  <!-- header capsule -->
  <rect x="88" y="112" width="904" height="126" rx="44" fill="#162a95" opacity="0.92" filter="url(#shadow)"/>
  <rect x="88" y="112" width="904" height="126" rx="44" fill="url(#panelBlue)" stroke="rgba(255,255,255,0.18)" stroke-width="4"/>
  <text x="146" y="187" fill="#ffffff" font-size="54" font-family="Arial, sans-serif" font-weight="700">מפתחות: 1,850</text>
  <rect x="746" y="146" width="194" height="74" rx="34" fill="rgba(255,255,255,0.18)" stroke="rgba(255,255,255,0.18)"/>
  <text x="843" y="194" text-anchor="middle" fill="#ffffff" font-size="30" font-family="Arial, sans-serif" font-weight="700">גבוהה מאוד</text>

  <!-- title ring -->
  <ellipse cx="542" cy="710" rx="275" ry="275" fill="none" stroke="#ffffff" stroke-width="6" opacity="0.86"/>
  <ellipse cx="542" cy="710" rx="290" ry="290" fill="none" stroke="#54ffff" stroke-width="10" opacity="0.55" filter="url(#soft)"/>

  <text x="542" y="650" text-anchor="middle" fill="#ffffff" font-size="86" font-family="Arial, sans-serif" font-weight="900">Color Block</text>
  <text x="542" y="800" text-anchor="middle" fill="#ffffff" font-size="96" font-family="Arial, sans-serif" font-weight="900">Jam</text>
  <text x="542" y="862" text-anchor="middle" fill="#edf7ff" font-size="34" font-family="Arial, sans-serif">10 שלבים · 15 שאלות בכל שלב</text>

  <!-- stage progress card -->
  <rect x="94" y="1046" width="892" height="166" rx="40" fill="#232ba6" opacity="0.96" filter="url(#shadow)"/>
  <rect x="94" y="1046" width="892" height="166" rx="40" fill="#2a33c8" stroke="rgba(255,255,255,0.18)" stroke-width="4"/>
  <text x="140" y="1104" fill="#ffffff" font-size="38" font-family="Arial, sans-serif" font-weight="700">שלב 4 מתוך 10</text>
  <text x="940" y="1104" text-anchor="end" fill="#ffffff" font-size="38" font-family="Arial, sans-serif" font-weight="700">15/15</text>
  <rect x="140" y="1140" width="800" height="46" rx="23" fill="#12205f"/>
  <rect x="140" y="1140" width="430" height="46" rx="23" fill="#64f47c"/>
  <text x="540" y="1170" text-anchor="middle" fill="#ffffff" font-size="28" font-family="Arial, sans-serif" font-weight="700">התקדמות לשלב הבא</text>

  <!-- question card -->
  <rect x="94" y="1246" width="892" height="302" rx="40" fill="#ffffff" opacity="0.96" filter="url(#shadow)"/>
  <rect x="94" y="1246" width="892" height="302" rx="40" fill="url(#card)" stroke="rgba(255,255,255,0.24)" stroke-width="4"/>
  <text x="540" y="1322" text-anchor="middle" fill="#1a2744" font-size="48" font-family="Arial, sans-serif" font-weight="700">האם כדור הארץ מסתובב סביב עצמו פעם ביום?</text>
  <text x="540" y="1386" text-anchor="middle" fill="#5c6c92" font-size="30" font-family="Arial, sans-serif">בחר אמת או שקר כדי להמשיך</text>

  <rect x="140" y="1454" width="350" height="64" rx="28" fill="url(#btnBlue)" stroke="rgba(255,255,255,0.25)" stroke-width="4"/>
  <text x="315" y="1496" text-anchor="middle" fill="#ffffff" font-size="34" font-family="Arial, sans-serif" font-weight="700">זה נכון</text>
  <rect x="590" y="1454" width="350" height="64" rx="28" fill="url(#btnPink)" stroke="rgba(255,255,255,0.25)" stroke-width="4"/>
  <text x="765" y="1496" text-anchor="middle" fill="#ffffff" font-size="34" font-family="Arial, sans-serif" font-weight="700">זה לא נכון</text>

  <!-- leaderboard card -->
  <rect x="94" y="1590" width="892" height="255" rx="40" fill="#172560" opacity="0.96" filter="url(#shadow)"/>
  <rect x="94" y="1590" width="892" height="255" rx="40" fill="#19297b" stroke="rgba(255,255,255,0.18)" stroke-width="4"/>
  <text x="140" y="1640" fill="#ffffff" font-size="38" font-family="Arial, sans-serif" font-weight="700">בילבורד חי</text>
  <text x="942" y="1640" text-anchor="end" fill="#ffe25c" font-size="38" font-family="Arial, sans-serif" font-weight="700">#4</text>

  <g font-family="Arial, sans-serif" font-size="28" font-weight="700" fill="#ffffff">
    <circle cx="152" cy="1698" r="14" fill="#ff5a79"/>
    <text x="192" y="1706">נועה</text>
    <text x="940" y="1706" text-anchor="end">18,620</text>

    <circle cx="152" cy="1736" r="14" fill="#4ec1ff"/>
    <text x="192" y="1744">דני</text>
    <text x="940" y="1744" text-anchor="end">18,110</text>

    <rect x="132" y="1758" width="806" height="44" rx="18" fill="rgba(255,255,255,0.12)"/>
    <circle cx="152" cy="1781" r="14" fill="#62f480"/>
    <text x="192" y="1789">את/ה</text>
    <text x="940" y="1789" text-anchor="end">17,890</text>

    <circle cx="152" cy="1824" r="14" fill="#ffbd3f"/>
    <text x="192" y="1832">מיה</text>
    <text x="940" y="1832" text-anchor="end">17,330</text>
  </g>

  <!-- share chip -->
  <rect x="180" y="1860" width="720" height="56" rx="24" fill="rgba(0,0,0,0.28)"/>
  <text x="540" y="1895" text-anchor="middle" fill="#ffffff" font-size="29" font-family="Arial, sans-serif" font-weight="700">שיתוף ל-WhatsApp: מי מגיע רחוק יותר?</text>
</svg>
