<svg width="1080" height="1920" viewBox="0 0 1080 1920" xmlns="http://www.w3.org/2000/svg">
  <defs>
    <linearGradient id="bg" x1="0" y1="0" x2="0" y2="1">
      <stop offset="0%" stop-color="#0b63ff"/>
      <stop offset="52%" stop-color="#4568ff"/>
      <stop offset="100%" stop-color="#d96dff"/>
    </linearGradient>
    <radialGradient id="glowTop" cx="50%" cy="26%" r="55%">
      <stop offset="0%" stop-color="#ffffff" stop-opacity="0.56"/>
      <stop offset="65%" stop-color="#7cf4ff" stop-opacity="0.16"/>
      <stop offset="100%" stop-color="#7cf4ff" stop-opacity="0"/>
    </radialGradient>
    <radialGradient id="glowBottom" cx="50%" cy="82%" r="42%">
      <stop offset="0%" stop-color="#ffb7ea" stop-opacity="0.42"/>
      <stop offset="100%" stop-color="#ffb7ea" stop-opacity="0"/>
    </radialGradient>
    <linearGradient id="btnBlue" x1="0" y1="0" x2="0" y2="1">
      <stop offset="0%" stop-color="#33a9ff"/>
      <stop offset="100%" stop-color="#1560ff"/>
    </linearGradient>
    <linearGradient id="titleFill" x1="0" y1="0" x2="0" y2="1">
      <stop offset="0%" stop-color="#ffffff"/>
      <stop offset="100%" stop-color="#dff9ff"/>
    </linearGradient>
    <filter id="shadow" x="-30%" y="-30%" width="160%" height="160%">
      <feGaussianBlur stdDeviation="16"/>
    </filter>
    <filter id="soft" x="-30%" y="-30%" width="160%" height="160%">
      <feGaussianBlur stdDeviation="7"/>
    </filter>
  </defs>

  <rect width="1080" height="1920" fill="url(#bg)"/>
  <rect width="1080" height="1920" fill="url(#glowTop)"/>
  <rect width="1080" height="1920" fill="url(#glowBottom)"/>

  <g opacity="0.95">
    <g transform="translate(56 220) rotate(-18)">
      <rect x="0" y="0" width="180" height="104" rx="34" fill="#ff4a76"/>
      <circle cx="40" cy="28" r="16" fill="#ffd2e0" opacity="0.35"/>
      <circle cx="82" cy="28" r="16" fill="#ffd2e0" opacity="0.35"/>
      <circle cx="124" cy="28" r="16" fill="#ffd2e0" opacity="0.35"/>
      <circle cx="40" cy="70" r="16" fill="#ffd2e0" opacity="0.35"/>
      <circle cx="82" cy="70" r="16" fill="#ffd2e0" opacity="0.35"/>
      <circle cx="124" cy="70" r="16" fill="#ffd2e0" opacity="0.35"/>
    </g>
    <g transform="translate(332 96)">
      <rect x="0" y="0" width="404" height="122" rx="38" fill="#b154ff"/>
      <circle cx="50" cy="32" r="18" fill="#efd2ff" opacity="0.3"/>
      <circle cx="104" cy="32" r="18" fill="#efd2ff" opacity="0.3"/>
      <circle cx="158" cy="32" r="18" fill="#efd2ff" opacity="0.3"/>
      <circle cx="212" cy="32" r="18" fill="#efd2ff" opacity="0.3"/>
      <circle cx="266" cy="32" r="18" fill="#efd2ff" opacity="0.3"/>
      <circle cx="320" cy="32" r="18" fill="#efd2ff" opacity="0.3"/>
      <circle cx="50" cy="80" r="18" fill="#efd2ff" opacity="0.3"/>
      <circle cx="104" cy="80" r="18" fill="#efd2ff" opacity="0.3"/>
      <circle cx="158" cy="80" r="18" fill="#efd2ff" opacity="0.3"/>
      <circle cx="212" cy="80" r="18" fill="#efd2ff" opacity="0.3"/>
      <circle cx="266" cy="80" r="18" fill="#efd2ff" opacity="0.3"/>
      <circle cx="320" cy="80" r="18" fill="#efd2ff" opacity="0.3"/>
    </g>
    <g transform="translate(842 246) rotate(16)">
      <rect x="0" y="0" width="186" height="108" rx="32" fill="#49f2ff"/>
      <circle cx="38" cy="28" r="15" fill="#d7ffff" opacity="0.35"/>
      <circle cx="80" cy="28" r="15" fill="#d7ffff" opacity="0.35"/>
      <circle cx="122" cy="28" r="15" fill="#d7ffff" opacity="0.35"/>
      <circle cx="38" cy="68" r="15" fill="#d7ffff" opacity="0.35"/>
      <circle cx="80" cy="68" r="15" fill="#d7ffff" opacity="0.35"/>
      <circle cx="122" cy="68" r="15" fill="#d7ffff" opacity="0.35"/>
    </g>
    <g transform="translate(820 620) rotate(-12)">
      <rect x="0" y="0" width="216" height="108" rx="32" fill="#65ff25"/>
      <circle cx="36" cy="26" r="15" fill="#ecffd9" opacity="0.35"/>
      <circle cx="84" cy="26" r="15" fill="#ecffd9" opacity="0.35"/>
      <circle cx="132" cy="26" r="15" fill="#ecffd9" opacity="0.35"/>
      <circle cx="36" cy="66" r="15" fill="#ecffd9" opacity="0.35"/>
      <circle cx="84" cy="66" r="15" fill="#ecffd9" opacity="0.35"/>
      <circle cx="132" cy="66" r="15" fill="#ecffd9" opacity="0.35"/>
    </g>
    <g transform="translate(104 1480) rotate(14)">
      <rect x="0" y="0" width="220" height="116" rx="34" fill="#ffe016"/>
      <circle cx="38" cy="28" r="17" fill="#fff4aa" opacity="0.35"/>
      <circle cx="86" cy="28" r="17" fill="#fff4aa" opacity="0.35"/>
      <circle cx="134" cy="28" r="17" fill="#fff4aa" opacity="0.35"/>
      <circle cx="38" cy="76" r="17" fill="#fff4aa" opacity="0.35"/>
      <circle cx="86" cy="76" r="17" fill="#fff4aa" opacity="0.35"/>
      <circle cx="134" cy="76" r="17" fill="#fff4aa" opacity="0.35"/>
    </g>
    <g transform="translate(820 1518) rotate(-10)">
      <rect x="0" y="0" width="230" height="116" rx="34" fill="#ff8c2f"/>
      <circle cx="38" cy="28" r="17" fill="#ffd7a8" opacity="0.35"/>
      <circle cx="86" cy="28" r="17" fill="#ffd7a8" opacity="0.35"/>
      <circle cx="134" cy="28" r="17" fill="#ffd7a8" opacity="0.35"/>
      <circle cx="38" cy="76" r="17" fill="#ffd7a8" opacity="0.35"/>
      <circle cx="86" cy="76" r="17" fill="#ffd7a8" opacity="0.35"/>
      <circle cx="134" cy="76" r="17" fill="#ffd7a8" opacity="0.35"/>
    </g>
  </g>

  <circle cx="540" cy="840" r="280" fill="none" stroke="#ffffff" stroke-width="6" opacity="0.9"/>
  <circle cx="540" cy="840" r="300" fill="none" stroke="#7cf4ff" stroke-width="12" opacity="0.36" filter="url(#soft)"/>

  <g font-family="Arial, sans-serif" text-anchor="middle">
    <text x="540" y="680" font-size="96" fill="url(#titleFill)" font-weight="900">Score Dash</text>
    <text x="540" y="780" font-size="42" fill="#ffffff" font-weight="800">המזל ישחק לך היום?</text>
    <text x="540" y="836" font-size="26" fill="#e7f3ff" font-weight="700">משחק מהיר · דירוג חי · 10 שלבים</text>
  </g>

  <rect x="320" y="1010" width="440" height="96" rx="34" fill="url(#btnBlue)" stroke="rgba(255,255,255,0.28)" stroke-width="4" filter="url(#shadow)"/>
  <text x="540" y="1070" font-family="Arial, sans-serif" font-size="40" font-weight="800" fill="#ffffff" text-anchor="middle">התחל</text>
</svg>
